<?xml version="1.0" encoding="utf-8"?>
<!-- Generator: Adobe Illustrator 16.0.0, SVG Export Plug-In . SVG Version: 6.00 Build 0)  -->
<!DOCTYPE svg PUBLIC "-//W3C//DTD SVG 1.1//EN" "http://www.w3.org/Graphics/SVG/1.1/DTD/svg11.dtd">
<svg version="1.1" id="Capa_1" xmlns="http://www.w3.org/2000/svg" xmlns:xlink="http://www.w3.org/1999/xlink" x="0px" y="0px"
	 width="493.578px" height="493.578px" viewBox="0 0 493.578 493.578" enable-background="new 0 0 493.578 493.578"
	 xml:space="preserve">
<g>
	<path fill="#FFFFFF" d="M487.267,225.981c0-17.365-13.999-31.518-31.518-31.518H194.501L305.35,83.615
		c12.24-12.24,12.24-32.207,0-44.676L275.592,9.18c-12.24-12.24-32.207-12.24-44.676,0L15.568,224.527
		c-6.12,6.12-9.256,14.153-9.256,22.262c0,8.031,3.136,16.143,9.256,22.262l215.348,215.349c12.24,12.238,32.207,12.238,44.676,0
		l29.758-29.76c12.24-12.239,12.24-32.207,0-44.676L194.501,299.498h261.094c17.366,0,31.52-14.153,31.52-31.52L487.267,225.981z"/>
</g>
</svg>
