<?xml version="1.0" encoding="utf-8"?>
<!-- Generator: Adobe Illustrator 16.0.0, SVG Export Plug-In . SVG Version: 6.00 Build 0)  -->
<!DOCTYPE svg PUBLIC "-//W3C//DTD SVG 1.1//EN" "http://www.w3.org/Graphics/SVG/1.1/DTD/svg11.dtd">
<svg version="1.1" id="Layer_1" xmlns="http://www.w3.org/2000/svg" xmlns:xlink="http://www.w3.org/1999/xlink" x="0px" y="0px"
	 width="24px" height="24px" viewBox="0 0 24 24" enable-background="new 0 0 24 24" xml:space="preserve">
<path fill="#FFFFFF" d="M19.092,6.863c-1.504,2.31-1.779,4.45-1.681,5.688C23.543,12.45,23.107,19,18.801,19
	C16.971,19,15,17.662,15,14.725C15,12.001,16.412,8.88,19.092,6.863z M6.092,6.863c-1.504,2.31-1.779,4.45-1.681,5.688
	C10.543,12.45,10.107,19,5.801,19C3.971,19,2,17.662,2,14.725C2,12.001,3.412,8.88,6.092,6.863z M23,3
	c-6.107,1.206-10,6.584-10,11.725C13,18.695,15.786,21,18.801,21C21.416,21,24,19.203,24,16.021c0-2.602-1.904-4.757-4.396-5.149
	c0.217-2.004,2.166-4.911,4.381-5.746L23,3z M10,3C3.892,4.206,0,9.584,0,14.725C0,18.695,2.786,21,5.801,21
	C8.416,21,11,19.203,11,16.021c0-2.602-1.905-4.757-4.396-5.149c0.217-2.004,2.165-4.911,4.38-5.746L10,3z"/>
</svg>
