<?xml version="1.0" encoding="utf-8"?>
<!-- Generator: Adobe Illustrator 16.0.0, SVG Export Plug-In . SVG Version: 6.00 Build 0)  -->
<!DOCTYPE svg PUBLIC "-//W3C//DTD SVG 1.1//EN" "http://www.w3.org/Graphics/SVG/1.1/DTD/svg11.dtd">
<svg version="1.1" id="Layer_1" xmlns="http://www.w3.org/2000/svg" xmlns:xlink="http://www.w3.org/1999/xlink" x="0px" y="0px"
	 width="24px" height="24px" viewBox="0 0 24 24" enable-background="new 0 0 24 24" xml:space="preserve">
<g>
	<path fill="#FFFFFF" d="M13,13V8h-2.9c0,0-0.7,0.1-0.9-0.4c-0.2-0.5,0.3-1,0.3-1L16.1,0l6.5,6.5c0,0,0.7,0.5,0.5,1.1
		c-0.199,0.6-1,0.4-1,0.4H19v5c0,0.6-0.3,1-0.9,1h-4C13.6,14,13,13.6,13,13z M15,12h2V6h2.1L16.2,3L13.1,6H15V12z"/>
	<path fill="#FFFFFF" d="M1.1,16.4c0.2-0.5,1-0.4,1-0.4H5v-5c0-0.6,0.5-1,1-1h4c0.6,0,1,0.4,1,1v5h3.1c0,0,0.7-0.1,0.9,0.4
		s-0.3,1-0.3,1L8,24l-6.5-6.5C1.6,17.5,0.9,17,1.1,16.4z M8,21l3.1-3H9v-6H7v6H5.1L8,21z"/>
</g>
</svg>
