<?xml version="1.0" encoding="utf-8"?>
<!-- Generator: Adobe Illustrator 16.0.0, SVG Export Plug-In . SVG Version: 6.00 Build 0)  -->
<!DOCTYPE svg PUBLIC "-//W3C//DTD SVG 1.1//EN" "http://www.w3.org/Graphics/SVG/1.1/DTD/svg11.dtd">
<svg version="1.1" id="Layer_1" xmlns="http://www.w3.org/2000/svg" xmlns:xlink="http://www.w3.org/1999/xlink" x="0px" y="0px"
	 width="32px" height="32px" viewBox="0 0 32 32" enable-background="new 0 0 32 32" xml:space="preserve">
<path fill="#FFFFFF" d="M28,14H8.8l4.62-4.62C13.814,8.986,14,8.516,14,8c0-0.984-0.813-2-2-2c-0.531,0-0.994,0.193-1.38,0.58
	l-7.958,7.958C2.334,14.866,2,15.271,2,16c0,0.729,0.279,1.08,0.646,1.447l7.974,7.973C11.006,25.807,11.469,26,12,26
	c1.188,0,2-1.016,2-2c0-0.516-0.186-0.986-0.58-1.38L8.8,18H28c1.104,0,2-0.896,2-2C30,14.896,29.104,14,28,14z"/>
</svg>
