<?xml version="1.0" encoding="utf-8"?>
<!-- Generator: Adobe Illustrator 16.0.0, SVG Export Plug-In . SVG Version: 6.00 Build 0)  -->
<!DOCTYPE svg PUBLIC "-//W3C//DTD SVG 1.1//EN" "http://www.w3.org/Graphics/SVG/1.1/DTD/svg11.dtd">
<svg version="1.1" id="Layer_1" xmlns="http://www.w3.org/2000/svg" xmlns:xlink="http://www.w3.org/1999/xlink" x="0px" y="0px"
	 width="24px" height="24px" viewBox="0 0 24 24" enable-background="new 0 0 24 24" xml:space="preserve">
<path fill="#FFFFFF" d="M23,5v13.883L22,19V3c-3.895,0.119-7.505,0.762-10.002,2.316C9.502,3.762,5.896,3.119,2,3v16l-1-0.117V5H0
	v15h9.057c1.479,0,1.641,1,2.941,1c1.304,0,1.461-1,2.941-1H24V5H23z M11,18.645c-1.946-0.771-4.137-1.269-7-1.483V5.11
	c2.352,0.197,4.996,0.675,7,1.922V18.645z M20,17.161c-2.863,0.215-5.055,0.712-7,1.483V7.032c2.004-1.247,4.648-1.725,7-1.922
	V17.161z"/>
</svg>
