<?xml version="1.0" encoding="utf-8"?>
<!-- Generator: Adobe Illustrator 16.0.0, SVG Export Plug-In . SVG Version: 6.00 Build 0)  -->
<!DOCTYPE svg PUBLIC "-//W3C//DTD SVG 1.1//EN" "http://www.w3.org/Graphics/SVG/1.1/DTD/svg11.dtd">
<svg version="1.1" id="Layer_1" xmlns="http://www.w3.org/2000/svg" xmlns:xlink="http://www.w3.org/1999/xlink" x="0px" y="0px"
	 width="32px" height="32px" viewBox="0 0 32 32" enable-background="new 0 0 32 32" xml:space="preserve">
<path fill="#FFFFFF" d="M14,4.001v19.2l-4.62-4.62c-0.394-0.394-0.864-0.58-1.38-0.58c-0.984,0-2,0.813-2,2
	c0,0.531,0.193,0.994,0.58,1.38l7.958,7.958c0.328,0.328,0.733,0.662,1.462,0.662c0.729,0,1.081-0.278,1.448-0.646l7.973-7.975
	c0.387-0.386,0.58-0.849,0.58-1.38c0-1.188-1.016-2-2-2c-0.516,0-0.986,0.187-1.38,0.58L18,23.201v-19.2c0-1.104-0.896-2-2-2
	C14.896,2.001,14,2.897,14,4.001z"/>
</svg>
