<?xml version="1.0" encoding="utf-8"?>
<!-- Generator: Adobe Illustrator 16.0.0, SVG Export Plug-In . SVG Version: 6.00 Build 0)  -->
<!DOCTYPE svg PUBLIC "-//W3C//DTD SVG 1.1//EN" "http://www.w3.org/Graphics/SVG/1.1/DTD/svg11.dtd">
<svg version="1.1" id="Layer_1" xmlns="http://www.w3.org/2000/svg" xmlns:xlink="http://www.w3.org/1999/xlink" x="0px" y="0px"
	 width="24px" height="24px" viewBox="0 0 24 24" enable-background="new 0 0 24 24" xml:space="preserve">
<path fill="#FFFFFF" d="M17.959,24c-1.729,0-3.376-0.742-4.521-2.037c-1.146-1.293-1.684-3.018-1.475-4.73
	c0.042-0.344-0.08-0.693-0.325-0.938L7.44,12.086c-0.274-0.274-0.654-0.432-1.043-0.432l-0.111,0.004
	c-1.683,0.129-3.373-0.481-4.584-1.692C0.604,8.867,0,7.405,0,5.849c0-1.044,0.293-2.385,0.715-3.278l3.81,3.811
	C4.96,6.308,5.492,5.988,5.929,5.447c0.283-0.35,0.427-0.675,0.466-0.91L2.569,0.71C3.458,0.292,4.788,0,5.824,0
	c1.533,0,3.043,0.601,4.143,1.702c1.239,1.241,1.82,2.881,1.679,4.743c-0.023,0.328,0.096,0.651,0.329,0.885l4.3,4.31
	c0.248,0.249,0.593,0.369,0.942,0.325C20.827,11.505,24,14.376,24,17.959C24,21.29,21.29,24,17.959,24z M6.396,9.657
	c0.915,0,1.81,0.371,2.456,1.018l4.2,4.208c0.677,0.678,1.009,1.646,0.892,2.594c-0.139,1.145,0.222,2.299,0.988,3.164
	c0.768,0.867,1.87,1.363,3.026,1.363c2.229,0,4.044-1.814,4.044-4.043c0-2.398-2.123-4.322-4.536-4.013
	c-0.981,0.122-1.923-0.212-2.606-0.896L10.56,8.74C9.917,8.093,9.587,7.203,9.654,6.295c0.097-1.283-0.273-2.353-1.1-3.181
	c-0.493-0.492-1.098-0.833-1.758-1l1.49,1.491c0.217,1,0.125,1.946-0.804,3.097c-1.004,1.246-2.297,1.93-3.878,1.585l-1.49-1.491
	c0.166,0.661,0.508,1.266,1,1.76c0.797,0.795,1.9,1.201,3.017,1.112L6.396,9.657z M17.671,16.879l1.079,0.289l0.289,1.079
	l-0.791,0.791l-1.079-0.29l-0.29-1.079L17.671,16.879L17.671,16.879z M17.225,15.208l-2.016,2.015l0.736,2.75l2.75,0.737
	l2.014-2.015l-0.736-2.75L17.225,15.208z"/>
</svg>
