<?xml version="1.0" encoding="utf-8"?>
<!-- Generator: Adobe Illustrator 16.0.0, SVG Export Plug-In . SVG Version: 6.00 Build 0)  -->
<!DOCTYPE svg PUBLIC "-//W3C//DTD SVG 1.1//EN" "http://www.w3.org/Graphics/SVG/1.1/DTD/svg11.dtd">
<svg version="1.1" id="Layer_1" xmlns="http://www.w3.org/2000/svg" xmlns:xlink="http://www.w3.org/1999/xlink" x="0px" y="0px"
	 width="32px" height="32px" viewBox="0 0 32 32" enable-background="new 0 0 32 32" xml:space="preserve">
<path fill="#FFFFFF" d="M18,28V8.8l4.62,4.62C23.014,13.814,23.484,14,24,14c0.984,0,2-0.813,2-2c0-0.531-0.193-0.994-0.58-1.38
	l-7.958-7.958C17.134,2.334,16.729,2,16,2s-1.08,0.279-1.447,0.646L6.58,10.62C6.193,11.006,6,11.469,6,12c0,1.188,1.016,2,2,2
	c0.516,0,0.986-0.186,1.38-0.58L14,8.8V28c0,1.104,0.896,2,2,2S18,29.104,18,28z"/>
</svg>
